grf
version=1
nRows=17
nColumns=37
inDegrees=no
endheader
time	ground_force_1_vx	ground_force_1_vy	ground_force_1_vz	ground_force_1_px	ground_force_1_py	ground_force_1_pz	ground_moment_1_mx	ground_moment_1_my	ground_moment_1_mz	ground_force_2_vx	ground_force_2_vy	ground_force_2_vz	ground_force_2_px	ground_force_2_py	ground_force_2_pz	ground_moment_2_mx	ground_moment_2_my	ground_moment_2_mz	ground_force_3_vx	ground_force_3_vy	ground_force_3_vz	ground_force_3_px	ground_force_3_py	ground_force_3_pz	ground_moment_3_mx	ground_moment_3_my	ground_moment_3_mz	ground_force_4_vx	ground_force_4_vy	ground_force_4_vz	ground_force_4_px	ground_force_4_py	ground_force_4_pz	ground_moment_4_mx	ground_moment_4_my	ground_moment_4_mz
      1.82000000	      0.00000000	     -0.00000000	      0.00000000	      0.00000000	      0.00000000	      0.00000000	      0.00000000	      0.00000000	      0.00000000	      4.80324030	     -1.65949821	   -762.10638428	   -280.67248566	  -1147.34474668	      0.00000000	      0.00000000	     -0.00000000	   -699.44819946	      0.00000000	     -0.00000000	      0.00000000	      0.00000000	      0.00000000	      0.00000000	      0.00000000	      0.00000000	      0.00000000	    -35.08148433	     16.19453737	     74.91477966	    608.60155206	   -566.46766484	      0.00000000	      0.00000000	     -0.00000000	    -33.63689756
      1.83000000	      0.00000000	     -0.00000000	      0.00000000	      0.00000000	      0.00000000	      0.00000000	      0.00000000	      0.00000000	      0.00000000	      2.52567267	     -3.88757992	   -765.23303223	   -279.57308182	  -1147.41160805	      0.00000000	      0.00000000	     -0.00000000	   -543.78439531	      0.00000000	     -0.00000000	      0.00000000	      0.00000000	      0.00000000	      0.00000000	      0.00000000	      0.00000000	      0.00000000	    -34.80610514	     16.29131049	     76.53410339	    600.36527917	   -564.10672236	      0.00000000	      0.00000000	     -0.00000000	   -126.41160003
      1.84000000	      0.00000000	     -0.00000000	      0.00000000	      0.00000000	      0.00000000	      0.00000000	      0.00000000	      0.00000000	      0.00000000	      1.48895812	     -5.01166582	   -767.89385986	   -278.02767421	  -1147.58689822	      0.00000000	      0.00000000	     -0.00000000	   -205.53293123	      0.00000000	     -0.00000000	      0.00000000	      0.00000000	      0.00000000	      0.00000000	      0.00000000	      0.00000000	      0.00000000	    -34.47457362	     16.27120510	     76.85852051	    598.59333829	   -565.88635165	      0.00000000	      0.00000000	      0.00000000	      2.79260382
      1.85000000	      0.00000000	     -0.00000000	      0.00000000	      0.00000000	      0.00000000	      0.00000000	      0.00000000	      0.00000000	      0.00000000	      0.48063675	     -4.27825928	   -766.45336914	   -276.20443188	  -1147.90653321	      0.00000000	      0.00000000	     -0.00000000	    -11.06240105	      0.00000000	     -0.00000000	      0.00000000	      0.00000000	      0.00000000	      0.00000000	      0.00000000	      0.00000000	      0.00000000	    -34.77334835	     16.14628333	     76.15661621	    602.81587950	   -563.27510197	      0.00000000	      0.00000000	     -0.00000000	    -12.95393027
      1.86000000	      0.00000000	     -0.00000000	      0.00000000	      0.00000000	      0.00000000	      0.00000000	      0.00000000	      0.00000000	      0.00000000	     -1.49688220	     -1.54338300	   -763.60101318	   -274.33594597	  -1149.03676860	      0.00000000	      0.00000000	      0.00000000	    186.43614427	      0.00000000	     -0.00000000	      0.00000000	      0.00000000	      0.00000000	      0.00000000	      0.00000000	      0.00000000	      0.00000000	    -34.88242200	     16.05637283	     74.91576385	    609.59522066	   -564.93008673	      0.00000000	      0.00000000	     -0.00000000	    -76.86099993
      1.87000000	      0.00000000	     -0.00000000	      0.00000000	      0.00000000	      0.00000000	      0.00000000	      0.00000000	      0.00000000	      0.00000000	     -3.93167734	      2.10417795	   -754.85864258	   -271.63521859	  -1149.16028521	      0.00000000	      0.00000000	      0.00000000	    149.97679957	      0.00000000	     -0.00000000	      0.00000000	      0.00000000	      0.00000000	      0.00000000	      0.00000000	      0.00000000	      0.00000000	    -34.57881404	     16.27823941	     75.94446564	    604.03138232	   -564.14949622	      0.00000000	      0.00000000	     -0.00000000	   -153.69506735
      1.88000000	      0.00000000	     -0.00000000	      0.00000000	      0.00000000	      0.00000000	      0.00000000	      0.00000000	      0.00000000	      0.00000000	     -6.31144619	      4.54565048	   -747.00061035	   -269.09482633	  -1149.75309281	      0.00000000	      0.00000000	      0.00000000	    281.21989393	      0.00000000	     -0.00000000	      0.00000000	      0.00000000	      0.00000000	      0.00000000	      0.00000000	      0.00000000	      0.00000000	    -34.56649641	     15.92462842	     75.45471191	    603.08457796	   -565.67750877	      0.00000000	      0.00000000	     -0.00000000	     -9.53827237
      1.89000000	      0.00000000	     -0.00000000	      0.00000000	      0.00000000	      0.00000000	      0.00000000	      0.00000000	      0.00000000	      0.00000000	     -6.34013224	      5.16338301	   -743.44372559	   -267.48026129	  -1150.24905395	      0.00000000	      0.00000000	      0.00000000	    265.17363603	      0.00000000	     -0.00000000	      0.00000000	      0.00000000	      0.00000000	      0.00000000	      0.00000000	      0.00000000	      0.00000000	    -34.69817208	     16.51245039	     77.02222443	    598.42942632	   -563.37233559	      0.00000000	      0.00000000	     -0.00000000	   -122.48762025
      1.90000000	      0.00000000	     -0.00000000	      0.00000000	      0.00000000	      0.00000000	      0.00000000	      0.00000000	      0.00000000	      0.00000000	     -5.54921150	      5.34177637	   -742.59674072	   -265.92370276	  -1149.92167419	      0.00000000	      0.00000000	      0.00000000	    460.40674646	      0.00000000	     -0.00000000	      0.00000000	      0.00000000	      0.00000000	      0.00000000	      0.00000000	      0.00000000	      0.00000000	    -34.80521250	     16.32653922	     74.12274933	    612.76942634	   -566.82616581	      0.00000000	     -0.00000000	     -0.00000000	    -54.29473679
      1.91000000	      0.00000000	     -0.00000000	      0.00000000	      0.00000000	      0.00000000	      0.00000000	      0.00000000	      0.00000000	      0.00000000	     -4.71032381	      4.22478580	   -744.47973633	   -264.40808569	  -1150.54149241	      0.00000000	      0.00000000	      0.00000000	    617.74629357	      0.00000000	     -0.00000000	      0.00000000	      0.00000000	      0.00000000	      0.00000000	      0.00000000	      0.00000000	      0.00000000	    -34.80510186	     16.54282874	     75.08116150	    608.54772850	   -567.40767398	      0.00000000	      0.00000000	      0.00000000	   -152.14770239
      1.92000000	      0.00000000	     -0.00000000	      0.00000000	      0.00000000	      0.00000000	      0.00000000	      0.00000000	      0.00000000	      0.00000000	     -5.18000317	      3.85691309	   -747.16363525	   -263.21516242	  -1150.22445309	      0.00000000	      0.00000000	      0.00000000	    623.76138318	      0.00000000	     -0.00000000	      0.00000000	      0.00000000	      0.00000000	      0.00000000	      0.00000000	      0.00000000	      0.00000000	    -34.83565762	     16.04547805	     75.64118958	    603.53406621	   -564.89278557	      0.00000000	      0.00000000	     -0.00000000	     -5.70015710
      1.93000000	      0.00000000	     -0.00000000	      0.00000000	      0.00000000	      0.00000000	      0.00000000	      0.00000000	      0.00000000	      0.00000000	     -5.82907534	      2.22257996	   -751.25872803	   -262.17176332	  -1151.18125244	      0.00000000	      0.00000000	      0.00000000	    756.56753000	      0.00000000	     -0.00000000	      0.00000000	      0.00000000	      0.00000000	      0.00000000	      0.00000000	      0.00000000	      0.00000000	    -34.76836636	     16.12116545	     75.10375977	    606.61365567	   -568.00696339	      0.00000000	     -0.00000000	     -0.00000000	    -32.43777002
      1.94000000	      0.00000000	     -0.00000000	      0.00000000	      0.00000000	      0.00000000	      0.00000000	      0.00000000	      0.00000000	      0.00000000	     -7.49368286	      2.04442787	   -754.72344971	   -260.96234870	  -1151.44652441	      0.00000000	      0.00000000	      0.00000000	    549.29206517	      0.00000000	     -0.00000000	      0.00000000	      0.00000000	      0.00000000	      0.00000000	      0.00000000	      0.00000000	      0.00000000	    -34.88880018	     16.00917549	     75.66191864	    604.49180063	   -562.95903470	      0.00000000	      0.00000000	     -0.00000000	    -93.98642113
      1.95000000	      0.00000000	     -0.00000000	      0.00000000	      0.00000000	      0.00000000	      0.00000000	      0.00000000	      0.00000000	      0.00000000	     -8.64799404	      0.66576761	   -760.79254150	   -259.95401139	  -1152.38333398	      0.00000000	      0.00000000	      0.00000000	    467.06792385	      0.00000000	     -0.00000000	      0.00000000	      0.00000000	      0.00000000	      0.00000000	      0.00000000	      0.00000000	      0.00000000	    -34.79410030	     16.19980735	     75.45471191	    604.46242232	   -564.75642658	      0.00000000	     -0.00000000	     -0.00000000	    -60.16958685
      1.96000000	      0.00000000	     -0.00000000	      0.00000000	      0.00000000	      0.00000000	      0.00000000	      0.00000000	      0.00000000	      0.00000000	    -10.52151108	      0.44032750	   -762.30718994	   -258.95435713	  -1152.75833461	      0.00000000	      0.00000000	      0.00000000	    109.51302409	      0.00000000	     -0.00000000	      0.00000000	      0.00000000	      0.00000000	      0.00000000	      0.00000000	      0.00000000	      0.00000000	    -34.70474101	     16.28450697	     75.12393951	    603.81655220	   -564.27277588	      0.00000000	      0.00000000	     -0.00000000	   -100.01495747
      1.97000000	      0.00000000	     -0.00000000	      0.00000000	      0.00000000	      0.00000000	      0.00000000	      0.00000000	      0.00000000	      0.00000000	    -10.47444057	     -1.39449954	   -767.27307129	   -259.28782256	  -1153.91057785	      0.00000000	      0.00000000	      0.00000000	     -3.90591535	      0.00000000	     -0.00000000	      0.00000000	      0.00000000	      0.00000000	      0.00000000	      0.00000000	      0.00000000	      0.00000000	    -34.93102504	     16.23700257	     76.94554138	    599.24624662	   -562.18044642	      0.00000000	      0.00000000	     -0.00000000	   -118.28639516
      1.98000000	      0.00000000	     -0.00000000	      0.00000000	      0.00000000	      0.00000000	      0.00000000	      0.00000000	      0.00000000	      0.00000000	     -9.02038288	     -1.28480637	   -774.15039062	   -260.76614736	  -1157.00325458	      0.00000000	      0.00000000	     -0.00000000	   -236.19194437	      0.00000000	     -0.00000000	      0.00000000	      0.00000000	      0.00000000	      0.00000000	      0.00000000	      0.00000000	      0.00000000	    -34.96851209	     15.95245286	     75.93332672	    605.17286509	   -564.79176435	      0.00000000	      0.00000000	      0.00000000	     85.36305944
